<?xml version="1.0" standalone="no"?>
<!DOCTYPE svg PUBLIC "-//W3C//DTD SVG 20010904//EN"
 "http://www.w3.org/TR/2001/REC-SVG-20010904/DTD/svg10.dtd">
<svg version="1.0" xmlns="http://www.w3.org/2000/svg"
 width="520.000000pt" height="520.000000pt" viewBox="0 0 520.000000 520.000000"
 preserveAspectRatio="xMidYMid meet">
<metadata>
Created by potrace 1.11, written by Peter Selinger 2001-2013
</metadata>
<g transform="translate(0.000000,520.000000) scale(0.100000,-0.100000)"
fill="#000000" stroke="none">
<path d="M2527 4884 c-1 -1 -42 -5 -92 -8 -49 -3 -100 -8 -112 -10 -11 -3 -43
-8 -70 -11 -26 -4 -75 -14 -108 -22 -33 -7 -71 -16 -85 -19 -50 -10 -256 -82
-323 -113 -37 -17 -69 -31 -71 -31 -11 0 -185 -102 -270 -157 -402 -265 -723
-680 -890 -1151 -39 -111 -83 -279 -100 -382 -3 -19 -8 -46 -11 -60 -27 -132
-28 -564 -1 -705 6 -32 29 -168 31 -185 1 -8 5 -22 8 -30 3 -8 11 -35 17 -60
73 -284 238 -612 434 -860 56 -71 251 -271 306 -315 158 -126 232 -176 367
-253 163 -92 398 -181 583 -221 93 -19 114 -23 255 -40 72 -9 420 -7 465 3 14
3 43 7 65 10 34 4 84 13 170 30 42 8 213 60 275 83 155 57 319 142 465 241 73
50 112 80 200 151 70 58 256 253 319 336 180 233 338 543 402 785 26 102 54
220 58 253 3 23 8 53 11 67 15 77 19 157 19 355 0 121 -3 243 -7 270 -19 130
-28 183 -37 223 -6 23 -15 63 -21 90 -23 99 -103 322 -155 432 -110 231 -256
444 -427 619 -201 208 -382 339 -632 461 -122 60 -375 157 -375 145 0 -3 -11
0 -25 5 -14 5 -36 12 -48 14 -12 3 -53 11 -92 20 -113 24 -235 36 -393 40 -56
1 -104 1 -105 0z"/>
</g>
</svg>
